# xmcd CD database file
#
# Track frame offsets:
#	150
#	8490
#	13372
#	18187
#	27642
#	33882
#	38725
#	43397
#	47820
#	49445
#	51130
#	53847
#	59565
#	65110
#	70585
#	75560
#	80735
#	85737
#	90522
#	96490
#	107247
#	114712
#	121352
#	124952
#	133500
#	138470
#	142882
#	148257
#	153062
#	157740
#	168100
#	172445
#	176667
#	178200
#	179555
#	181042
#	182187
#	183452
#	193070
#	202367
#	206525
#	209930
#	214520
#	218932
#	224395
#	228725
#	237807
#	243542
#	247985
#	256240
#
# Disc length: 3577 seconds
#
# Revision: 1
# Processed by: cddbd v1.4b42PL0 Copyright (c) Steve Scherf et al.
# Submitted via: CDex 1.40Beta4
#
DISCID=fb0df732
DTITLE=Peter Gelling - Blues Guitar Solos
DYEAR=1900
DGENRE=Blues
TTITLE0=01_Tuning
TTITLE1=02_bluesbreaker
TTITLE2=03_AroundTheBend
TTITLE3=04_DownInTheDelta
TTITLE4=05_ParkingMeter
TTITLE5=06_GoinToMemphis
TTITLE6=07_TheBlender
TTITLE7=08_TownToTown
TTITLE8=09_OneString1
TTITLE9=10_OneString2
TTITLE10=11_OneString3
TTITLE11=12_StringBean
TTITLE12=13_HoldThatTrain
TTITLE13=14_BackIn66
TTITLE14=15_TheThirdDegree
TTITLE15=16_TurnMeLoose
TTITLE16=17_SwinginAlong
TTITLE17=18_SolosUsingChords
TTITLE18=19_JoesJive
TTITLE19=20_SlidinOnDown
TTITLE20=21_StraightLine
TTITLE21=22_LonesomeRoad
TTITLE22=23_RiffStyleSolos
TTITLE23=24_Collins
TTITLE24=25_CallAndResponse
TTITLE25=26_VocalStyle
TTITLE26=27_CallAndResponse
TTITLE27=28_TwoWayConversation
TTITLE28=29_TellMeMore
TTITLE29=30_ILostMyBaby
TTITLE30=31_GimmeSomeSpace
TTITLE31=32_BuddysBlues
TTITLE32=33_BB1
TTITLE33=34_BB2
TTITLE34=35_BB3
TTITLE35=36_BB4
TTITLE36=37_BB5
TTITLE37=38_FlashLightnin
TTITLE38=39_TBoneJunction
TTITLE39=40_Chuckin
TTITLE40=41_RhumbaBBKing
TTITLE41=42_RhumbaAlbertKing
TTITLE42=43_ShuffleBBKing
TTITLE43=44_ShuffleFreddieKing
TTITLE44=45_IMissYourLovin
TTITLE45=46_BendingTheBlues
TTITLE46=47_HotIce
TTITLE47=48_RazorBlade
TTITLE48=49_CantTurnBack
TTITLE49=50_BluesNeverDie
EXTD=ID3G:   0
EXTT0=
EXTT1=
EXTT2=
EXTT3=
EXTT4=
EXTT5=
EXTT6=
EXTT7=
EXTT8=
EXTT9=
EXTT10=
EXTT11=
EXTT12=
EXTT13=
EXTT14=
EXTT15=
EXTT16=
EXTT17=
EXTT18=
EXTT19=
EXTT20=
EXTT21=
EXTT22=
EXTT23=
EXTT24=
EXTT25=
EXTT26=
EXTT27=
EXTT28=
EXTT29=
EXTT30=
EXTT31=
EXTT32=
EXTT33=
EXTT34=
EXTT35=
EXTT36=
EXTT37=
EXTT38=
EXTT39=
EXTT40=
EXTT41=
EXTT42=
EXTT43=
EXTT44=
EXTT45=
EXTT46=
EXTT47=
EXTT48=
EXTT49=
PLAYORDER=
